<svg width="24" height="24" viewBox="0 0 24 24" fill="none" xmlns="http://www.w3.org/2000/svg">
<path fill-rule="evenodd" clip-rule="evenodd" d="M12 2.1C9.3 2.1 8.9 2.1 7.9 2.2C6.8 2.2 6.1 2.4 5.5 2.7C4.8 2.9 4.2 3.3 3.7 3.8C3.1 4.4 2.8 4.9 2.5 5.6C2.3 6.2 2.1 7 2.1 8C2 9.1 2 9.4 2 12.1C2 14.8 2 15.2 2.1 16.2C2.1 17.3 2.3 18 2.6 18.6C2.9 19.3 3.2 19.8 3.8 20.4C4.4 21 4.9 21.3 5.6 21.6C6.2 21.8 7 22 8 22.1H12C14.7 22.1 15.1 22.1 16.1 22C17.2 22 17.9 21.8 18.5 21.5C19.2 21.2 19.7 20.9 20.3 20.3C20.9 19.7 21.2 19.2 21.5 18.5C21.7 17.9 21.9 17.1 22 16.1C22 15.6714 22.0152 15.3643 22.0337 14.9894C22.0627 14.4019 22.1 13.6481 22.1 12C22.1 9.3 22.1 8.9 22 7.9C22 6.8 21.8 6.1 21.5 5.5C21.2 4.8 20.9 4.3 20.3 3.7C19.7 3.1 19.2 2.8 18.5 2.5C17.9 2.3 17.1 2.1 16.1 2C15.4039 2.13923 14.9985 2.13307 13.9055 2.11648C13.4285 2.10923 12.8204 2.1 12 2.1ZM12 3.9C14.7 3.9 15 3.9 16 4C16.8258 4 17.3106 4.13638 17.6797 4.24021C17.7576 4.26212 17.8303 4.28258 17.9 4.3C18.4 4.5 18.7 4.7 19 5.1C19.3 5.4 19.6 5.8 19.7 6.2C19.9 6.6 20.1 7.1 20.1 8.1C20.1 8.53351 20.1155 8.84277 20.1344 9.21753V9.21756V9.21758V9.2176C20.1633 9.79375 20.2 10.5247 20.2 12.1V12.1002C20.2 14.8 20.2 15.1 20.1 16.1C20.1 16.9258 19.9636 17.4106 19.8598 17.7797L19.8598 17.7798C19.8379 17.8577 19.8174 17.9304 19.8 18C19.6 18.5 19.4 18.8 19.1 19.1C18.8 19.4 18.4 19.7 18 19.8C17.5 20.1 17 20.2 16 20.3C15.5665 20.3 15.2572 20.3155 14.8825 20.3344L14.8824 20.3344H14.8824C14.3062 20.3633 13.5753 20.4 12 20.4C9.4 20.4 9 20.4 8 20.3C7.17422 20.3 6.68939 20.1636 6.32028 20.0598C6.24241 20.0379 6.16969 20.0174 6.1 20C5.6 19.8 5.3 19.6 5 19.3C4.7 19 4.4 18.6 4.3 18.2C4.28258 18.1303 4.26212 18.0576 4.24021 17.9797C4.13638 17.6106 4 17.1258 4 16.3C4 15.8665 3.98447 15.5572 3.96565 15.1825C3.93671 14.6063 3.9 13.8753 3.9 12.3C3.9 9.6 3.9 9.3 4 8.3C4 7.47422 4.13638 6.9894 4.24021 6.62029C4.26212 6.54241 4.28258 6.46969 4.3 6.4C4.4 5.8 4.6 5.4 5 5.1C5.3 4.8 5.7 4.5 6.1 4.4C6.5 4.2 7 4 8 4C8.37833 4 8.65647 3.98569 9.00229 3.96789C9.57053 3.93865 10.3215 3.9 12 3.9ZM8.7 12.2C8.7 14 10.2 15.5 12 15.5C13.8 15.5 15.3 14 15.3 12.2C15.3 10.4 13.8 8.9 12 8.9C10.2 8.9 8.7 10.4 8.7 12.2ZM12 7C9.2 7 6.9 9.3 6.9 12.1C6.9 14.9 9.2 17.2 12 17.2C14.8 17.2 17.1 14.9 17.1 12.1C17.1 9.3 14.8 7 12 7ZM17.3 8C18 8 18.5 7.5 18.5 6.8C18.5 6.1 18 5.6 17.3 5.6C16.6 5.6 16.1 6.1 16.1 6.8C16.1 7.5 16.6 8 17.3 8Z" fill="#2E3134"/>
<mask id="mask0" mask-type="alpha" maskUnits="userSpaceOnUse" x="2" y="2" width="21" height="21">
<path fill-rule="evenodd" clip-rule="evenodd" d="M12 2.1C9.3 2.1 8.9 2.1 7.9 2.2C6.8 2.2 6.1 2.4 5.5 2.7C4.8 2.9 4.2 3.3 3.7 3.8C3.1 4.4 2.8 4.9 2.5 5.6C2.3 6.2 2.1 7 2.1 8C2 9.1 2 9.4 2 12.1C2 14.8 2 15.2 2.1 16.2C2.1 17.3 2.3 18 2.6 18.6C2.9 19.3 3.2 19.8 3.8 20.4C4.4 21 4.9 21.3 5.6 21.6C6.2 21.8 7 22 8 22.1H12C14.7 22.1 15.1 22.1 16.1 22C17.2 22 17.9 21.8 18.5 21.5C19.2 21.2 19.7 20.9 20.3 20.3C20.9 19.7 21.2 19.2 21.5 18.5C21.7 17.9 21.9 17.1 22 16.1C22 15.6714 22.0152 15.3643 22.0337 14.9894C22.0627 14.4019 22.1 13.6481 22.1 12C22.1 9.3 22.1 8.9 22 7.9C22 6.8 21.8 6.1 21.5 5.5C21.2 4.8 20.9 4.3 20.3 3.7C19.7 3.1 19.2 2.8 18.5 2.5C17.9 2.3 17.1 2.1 16.1 2C15.4039 2.13923 14.9985 2.13307 13.9055 2.11648C13.4285 2.10923 12.8204 2.1 12 2.1ZM12 3.9C14.7 3.9 15 3.9 16 4C16.8258 4 17.3106 4.13638 17.6797 4.24021C17.7576 4.26212 17.8303 4.28258 17.9 4.3C18.4 4.5 18.7 4.7 19 5.1C19.3 5.4 19.6 5.8 19.7 6.2C19.9 6.6 20.1 7.1 20.1 8.1C20.1 8.53351 20.1155 8.84277 20.1344 9.21753V9.21756V9.21758V9.2176C20.1633 9.79375 20.2 10.5247 20.2 12.1V12.1002C20.2 14.8 20.2 15.1 20.1 16.1C20.1 16.9258 19.9636 17.4106 19.8598 17.7797L19.8598 17.7798C19.8379 17.8577 19.8174 17.9304 19.8 18C19.6 18.5 19.4 18.8 19.1 19.1C18.8 19.4 18.4 19.7 18 19.8C17.5 20.1 17 20.2 16 20.3C15.5665 20.3 15.2572 20.3155 14.8825 20.3344L14.8824 20.3344H14.8824C14.3062 20.3633 13.5753 20.4 12 20.4C9.4 20.4 9 20.4 8 20.3C7.17422 20.3 6.68939 20.1636 6.32028 20.0598C6.24241 20.0379 6.16969 20.0174 6.1 20C5.6 19.8 5.3 19.6 5 19.3C4.7 19 4.4 18.6 4.3 18.2C4.28258 18.1303 4.26212 18.0576 4.24021 17.9797C4.13638 17.6106 4 17.1258 4 16.3C4 15.8665 3.98447 15.5572 3.96565 15.1825C3.93671 14.6063 3.9 13.8753 3.9 12.3C3.9 9.6 3.9 9.3 4 8.3C4 7.47422 4.13638 6.9894 4.24021 6.62029C4.26212 6.54241 4.28258 6.46969 4.3 6.4C4.4 5.8 4.6 5.4 5 5.1C5.3 4.8 5.7 4.5 6.1 4.4C6.5 4.2 7 4 8 4C8.37833 4 8.65647 3.98569 9.00229 3.96789C9.57053 3.93865 10.3215 3.9 12 3.9ZM8.7 12.2C8.7 14 10.2 15.5 12 15.5C13.8 15.5 15.3 14 15.3 12.2C15.3 10.4 13.8 8.9 12 8.9C10.2 8.9 8.7 10.4 8.7 12.2ZM12 7C9.2 7 6.9 9.3 6.9 12.1C6.9 14.9 9.2 17.2 12 17.2C14.8 17.2 17.1 14.9 17.1 12.1C17.1 9.3 14.8 7 12 7ZM17.3 8C18 8 18.5 7.5 18.5 6.8C18.5 6.1 18 5.6 17.3 5.6C16.6 5.6 16.1 6.1 16.1 6.8C16.1 7.5 16.6 8 17.3 8Z" fill="white"/>
</mask>
<g mask="url(#mask0)">
<path d="M0 0H24V24H0V0Z" fill="white"/>
</g>
</svg>
