<svg width="24" height="24" viewBox="0 0 24 24" fill="none" xmlns="http://www.w3.org/2000/svg">
<path d="M13 17.2C12 17.2 11 16.8 10.4 16.1L9.2 20.1L9.1 20.4C8.8 20.8 8.4 21 7.9 21C7.1 21 6.5 20.4 6.5 19.6C6.5 19.5 6.5 19.5 6.5 19.4L6.6 19.2L8.9 12.3C8.9 12.3 8.7 11.5 8.7 10.5C8.7 8.4 9.9 7.7 10.8 7.7C11.7 7.7 12.6 8 12.6 9.3C12.6 11 11.5 11.8 11.5 13C11.5 13.9 12.3 14.7 13.2 14.7C16.1 14.7 17.2 12.5 17.2 10.5C17.2 7.8 14.8 5.6 12 5.6C9.1 5.6 6.8 7.8 6.8 10.5C6.8 11.3 7 12.2 7.5 12.9C7.6 13.1 7.7 13.3 7.7 13.5C7.7 14.2 7.1 14.7 6.5 14.7C6.1 14.7 5.7 14.5 5.4 14.1C4.3 13 4 11.7 4 10.4C4 6.3 7.5 3 11.8 3C16.1 3 19.6 6.3 19.6 10.4C19.5 13.7 17.5 17.2 13 17.2Z" fill="#2E3134"/>
<mask id="mask0" mask-type="alpha" maskUnits="userSpaceOnUse" x="4" y="3" width="16" height="18">
<path d="M13 17.2C12 17.2 11 16.8 10.4 16.1L9.2 20.1L9.1 20.4C8.8 20.8 8.4 21 7.9 21C7.1 21 6.5 20.4 6.5 19.6C6.5 19.5 6.5 19.5 6.5 19.4L6.6 19.2L8.9 12.3C8.9 12.3 8.7 11.5 8.7 10.5C8.7 8.4 9.9 7.7 10.8 7.7C11.7 7.7 12.6 8 12.6 9.3C12.6 11 11.5 11.8 11.5 13C11.5 13.9 12.3 14.7 13.2 14.7C16.1 14.7 17.2 12.5 17.2 10.5C17.2 7.8 14.8 5.6 12 5.6C9.1 5.6 6.8 7.8 6.8 10.5C6.8 11.3 7 12.2 7.5 12.9C7.6 13.1 7.7 13.3 7.7 13.5C7.7 14.2 7.1 14.7 6.5 14.7C6.1 14.7 5.7 14.5 5.4 14.1C4.3 13 4 11.7 4 10.4C4 6.3 7.5 3 11.8 3C16.1 3 19.6 6.3 19.6 10.4C19.5 13.7 17.5 17.2 13 17.2Z" fill="white"/>
</mask>
<g mask="url(#mask0)">
<path d="M0 0H24V24H0V0Z" fill="white"/>
</g>
</svg>
