<svg width="24" height="24" viewBox="0 0 24 24" fill="none" xmlns="http://www.w3.org/2000/svg">
<path d="M22 6.8C21.3 7.1 20.5 7.3 19.8 7.4C20.6 6.9 21.2 6.2 21.5 5.3C20.7 5.7 19.9 6 19 6.2C18.3 5.4 17.3 5 16.1 5C14 5 12.3 6.7 12.3 8.8C12.3 9.1 12.3 9.4 12.4 9.7C9.2 9.5 6.3 8 4.4 5.7C4 6.3 3.8 6.9 3.8 7.6C3.8 8.9 4.5 10.1 5.5 10.7C4.9 10.7 4.3 10.5 3.7 10.3C3.7 12.1 5 13.7 6.8 14C6.5 14.1 6.1 14.1 5.8 14.1C5.6 14.1 5.3 14.1 5.1 14C5.6 15.5 7 16.6 8.7 16.6C7.4 17.6 5.7 18.2 3.9 18.2C3.6 18.2 3.3 18.2 3 18.1C4.7 19.4 6.8 20 9 20C16.2 20 20.1 14.2 20.1 9.2C20.1 9 20.1 8.9 20.1 8.7C20.8 8.2 21.5 7.5 22 6.8Z" fill="#2E3134"/>
<mask id="mask0" mask-type="alpha" maskUnits="userSpaceOnUse" x="3" y="5" width="19" height="15">
<path d="M22 6.8C21.3 7.1 20.5 7.3 19.8 7.4C20.6 6.9 21.2 6.2 21.5 5.3C20.7 5.7 19.9 6 19 6.2C18.3 5.4 17.3 5 16.1 5C14 5 12.3 6.7 12.3 8.8C12.3 9.1 12.3 9.4 12.4 9.7C9.2 9.5 6.3 8 4.4 5.7C4 6.3 3.8 6.9 3.8 7.6C3.8 8.9 4.5 10.1 5.5 10.7C4.9 10.7 4.3 10.5 3.7 10.3C3.7 12.1 5 13.7 6.8 14C6.5 14.1 6.1 14.1 5.8 14.1C5.6 14.1 5.3 14.1 5.1 14C5.6 15.5 7 16.6 8.7 16.6C7.4 17.6 5.7 18.2 3.9 18.2C3.6 18.2 3.3 18.2 3 18.1C4.7 19.4 6.8 20 9 20C16.2 20 20.1 14.2 20.1 9.2C20.1 9 20.1 8.9 20.1 8.7C20.8 8.2 21.5 7.5 22 6.8Z" fill="white"/>
</mask>
<g mask="url(#mask0)">
<path d="M0 0H24V24H0V0Z" fill="white"/>
</g>
</svg>
