<svg width="24" height="24" viewBox="0 0 24 24" fill="none" xmlns="http://www.w3.org/2000/svg">
<path fill-rule="evenodd" clip-rule="evenodd" d="M12 4C15.7 4 19.4 4.2 20 4.4C21.6 4.9 22 8.4 22 12C22 15.6 21.6 19.1 20 19.6C19.4 19.8 15.7 20 12 20C8.3 20 4.6 19.8 4 19.6C2.4 19.1 2 15.6 2 12C2 8.4 2.4 4.9 4 4.4C4.6 4.2 8.3 4 12 4ZM16 12L10 7.5V16.5L16 12Z" fill="#2E3134"/>
<mask id="mask0" mask-type="alpha" maskUnits="userSpaceOnUse" x="2" y="4" width="20" height="16">
<path fill-rule="evenodd" clip-rule="evenodd" d="M12 4C15.7 4 19.4 4.2 20 4.4C21.6 4.9 22 8.4 22 12C22 15.6 21.6 19.1 20 19.6C19.4 19.8 15.7 20 12 20C8.3 20 4.6 19.8 4 19.6C2.4 19.1 2 15.6 2 12C2 8.4 2.4 4.9 4 4.4C4.6 4.2 8.3 4 12 4ZM16 12L10 7.5V16.5L16 12Z" fill="white"/>
</mask>
<g mask="url(#mask0)">
<path d="M0 0H24V24H0V0Z" fill="white"/>
</g>
</svg>
