<svg width="12" height="12" viewBox="0 0 12 12" fill="none" xmlns="http://www.w3.org/2000/svg">
<path fill-rule="evenodd" clip-rule="evenodd" d="M10 6.5C10 4.2945 8.2055 2.5 6 2.5C3.7945 2.5 2 4.2945 2 6.5C2 8.7055 3.7945 10.5 6 10.5C8.2055 10.5 10 8.7055 10 6.5V6.5ZM10.5 6.5C10.5 8.981 8.481 11 6 11C3.519 11 1.5 8.981 1.5 6.5C1.5 4.019 3.519 2 6 2C7.107 2 8.1205 2.404 8.9055 3.0695L9.621 2.3535L9.975 2.707L9.267 3.415C10.029 4.2215 10.5 5.3055 10.5 6.5V6.5ZM4.5 1.5H7.5V1H4.5V1.5ZM5.75 7H6.25V4H5.75V7Z" fill="#2E3134"/>
<mask id="mask0" mask-type="alpha" maskUnits="userSpaceOnUse" x="1" y="1" width="10" height="10">
<path fill-rule="evenodd" clip-rule="evenodd" d="M10 6.5C10 4.2945 8.2055 2.5 6 2.5C3.7945 2.5 2 4.2945 2 6.5C2 8.7055 3.7945 10.5 6 10.5C8.2055 10.5 10 8.7055 10 6.5V6.5ZM10.5 6.5C10.5 8.981 8.481 11 6 11C3.519 11 1.5 8.981 1.5 6.5C1.5 4.019 3.519 2 6 2C7.107 2 8.1205 2.404 8.9055 3.0695L9.621 2.3535L9.975 2.707L9.267 3.415C10.029 4.2215 10.5 5.3055 10.5 6.5V6.5ZM4.5 1.5H7.5V1H4.5V1.5ZM5.75 7H6.25V4H5.75V7Z" fill="white"/>
</mask>
</svg>
