<svg width="12" height="12" viewBox="0 0 12 12" fill="none" xmlns="http://www.w3.org/2000/svg">
<path fill-rule="evenodd" clip-rule="evenodd" d="M7.33343 5.27449L4.85143 7.46249C4.75593 7.54649 4.63743 7.59049 4.50893 7.59049C4.42343 7.59049 4.26043 7.56949 4.12993 7.42749C4.04343 7.33399 3.99993 7.21449 4.00643 7.09099C4.01243 6.96649 4.06893 6.85049 4.16593 6.76549L6.64843 4.57749C6.74243 4.49499 6.86393 4.44999 6.99043 4.44999C7.07593 4.44999 7.23943 4.47149 7.36993 4.61299C7.45593 4.70649 7.49993 4.82599 7.49343 4.94899C7.48593 5.07649 7.42843 5.19099 7.33343 5.27449V5.27449ZM7.73843 4.27449C7.54893 4.06849 7.27643 3.94999 6.99043 3.94999C6.74193 3.94999 6.50293 4.03949 6.31843 4.20249L3.83493 6.39049C3.63693 6.56499 3.52043 6.80449 3.50693 7.06449C3.49343 7.32349 3.58343 7.57249 3.76143 7.76549C3.95143 7.97249 4.22393 8.09049 4.50893 8.09049C4.75793 8.09049 4.99693 8.00049 5.18143 7.83799L7.66393 5.64999C7.86243 5.47499 7.97893 5.23549 7.99243 4.97499C8.00643 4.71649 7.91593 4.46799 7.73843 4.27449V4.27449ZM7.53143 7.873L6.38193 8.8865C5.86693 9.34 5.20193 9.59 4.50943 9.59C3.80793 9.59 3.13643 9.335 2.61893 8.8715L2.51393 8.7775L2.94793 8.3955L3.03043 8.4685C3.43743 8.826 3.96293 9.0225 4.50943 9.0225C5.05643 9.0225 5.58193 8.825 5.98843 8.4665L7.14143 7.4505L7.53143 7.873ZM10.4954 5.10151C10.4479 6.01651 10.0374 6.85851 9.34093 7.47251L6.85593 9.66251C6.21093 10.2295 5.37793 10.542 4.50993 10.542C3.51493 10.542 2.56343 10.1285 1.89893 9.40701C1.27443 8.72751 0.956928 7.85201 1.00443 6.94051C1.05193 6.02651 1.46093 5.18501 2.15543 4.57101L4.64193 2.38001C5.28643 1.81151 6.12043 1.49801 6.98993 1.49801C7.98443 1.49801 8.93593 1.91201 9.59993 2.63401C10.2249 3.31301 10.5434 4.18951 10.4954 5.10151V5.10151ZM6.98893 1C5.99693 1 5.04593 1.357 4.31093 2.0045L1.82543 4.196C1.02893 4.8995 0.559927 5.865 0.505427 6.915C0.450427 7.9615 0.814927 8.967 1.53143 9.745C2.28793 10.568 3.37443 11.04 4.51093 11.04C5.50093 11.04 6.45143 10.684 7.18643 10.0375L9.67143 7.8475C10.4694 7.144 10.9394 6.178 10.9949 5.1275C11.0499 4.081 10.6854 3.075 9.96893 2.2955C9.21093 1.472 8.12493 1 6.98893 1V1Z" fill="#2E3134"/>
<mask id="mask0" mask-type="alpha" maskUnits="userSpaceOnUse" x="0" y="1" width="12" height="11">
<path fill-rule="evenodd" clip-rule="evenodd" d="M7.33343 5.27449L4.85143 7.46249C4.75593 7.54649 4.63743 7.59049 4.50893 7.59049C4.42343 7.59049 4.26043 7.56949 4.12993 7.42749C4.04343 7.33399 3.99993 7.21449 4.00643 7.09099C4.01243 6.96649 4.06893 6.85049 4.16593 6.76549L6.64843 4.57749C6.74243 4.49499 6.86393 4.44999 6.99043 4.44999C7.07593 4.44999 7.23943 4.47149 7.36993 4.61299C7.45593 4.70649 7.49993 4.82599 7.49343 4.94899C7.48593 5.07649 7.42843 5.19099 7.33343 5.27449V5.27449ZM7.73843 4.27449C7.54893 4.06849 7.27643 3.94999 6.99043 3.94999C6.74193 3.94999 6.50293 4.03949 6.31843 4.20249L3.83493 6.39049C3.63693 6.56499 3.52043 6.80449 3.50693 7.06449C3.49343 7.32349 3.58343 7.57249 3.76143 7.76549C3.95143 7.97249 4.22393 8.09049 4.50893 8.09049C4.75793 8.09049 4.99693 8.00049 5.18143 7.83799L7.66393 5.64999C7.86243 5.47499 7.97893 5.23549 7.99243 4.97499C8.00643 4.71649 7.91593 4.46799 7.73843 4.27449V4.27449ZM7.53143 7.873L6.38193 8.8865C5.86693 9.34 5.20193 9.59 4.50943 9.59C3.80793 9.59 3.13643 9.335 2.61893 8.8715L2.51393 8.7775L2.94793 8.3955L3.03043 8.4685C3.43743 8.826 3.96293 9.0225 4.50943 9.0225C5.05643 9.0225 5.58193 8.825 5.98843 8.4665L7.14143 7.4505L7.53143 7.873ZM10.4954 5.10151C10.4479 6.01651 10.0374 6.85851 9.34093 7.47251L6.85593 9.66251C6.21093 10.2295 5.37793 10.542 4.50993 10.542C3.51493 10.542 2.56343 10.1285 1.89893 9.40701C1.27443 8.72751 0.956928 7.85201 1.00443 6.94051C1.05193 6.02651 1.46093 5.18501 2.15543 4.57101L4.64193 2.38001C5.28643 1.81151 6.12043 1.49801 6.98993 1.49801C7.98443 1.49801 8.93593 1.91201 9.59993 2.63401C10.2249 3.31301 10.5434 4.18951 10.4954 5.10151V5.10151ZM6.98893 1C5.99693 1 5.04593 1.357 4.31093 2.0045L1.82543 4.196C1.02893 4.8995 0.559927 5.865 0.505427 6.915C0.450427 7.9615 0.814927 8.967 1.53143 9.745C2.28793 10.568 3.37443 11.04 4.51093 11.04C5.50093 11.04 6.45143 10.684 7.18643 10.0375L9.67143 7.8475C10.4694 7.144 10.9394 6.178 10.9949 5.1275C11.0499 4.081 10.6854 3.075 9.96893 2.2955C9.21093 1.472 8.12493 1 6.98893 1V1Z" fill="white"/>
</mask>
</svg>
